<svg id="Слой_2" data-name="Слой 2" xmlns="http://www.w3.org/2000/svg" viewBox="0 0 5679.21 1475.11"><defs><style>.cls-1,.cls-10,.cls-11,.cls-12,.cls-2,.cls-3,.cls-4,.cls-5,.cls-6,.cls-7,.cls-8,.cls-9{fill:none;stroke:#000;}.cls-1{stroke-linecap:round;stroke-linejoin:round;stroke-width:7.09px;}.cls-10,.cls-11,.cls-12,.cls-2,.cls-3,.cls-4,.cls-5,.cls-6,.cls-7,.cls-8,.cls-9{stroke-miterlimit:10;}.cls-2{stroke-width:11.34px;}.cls-3{stroke-width:40px;}.cls-4{stroke-width:2px;}.cls-5{stroke-width:4px;}.cls-6{stroke-width:3px;}.cls-7{stroke-width:6px;}.cls-8{stroke-width:12px;}.cls-9{stroke-width:30px;}.cls-10{stroke-width:20px;}.cls-11{stroke-width:5px;}.cls-12{stroke-width:7px;}</style></defs><line class="cls-1" x1="260.91" y1="431.78" x2="260.91" y2="534.72"/><line class="cls-1" x1="106.49" y1="534.72" x2="260.91" y2="534.72"/><line class="cls-1" x1="260.91" y1="122.94" x2="260.91" y2="20"/><line class="cls-1" x1="106.49" y1="277.36" x2="3.54" y2="277.36"/><line class="cls-1" x1="260.91" y1="431.78" x2="106.49" y2="431.78"/><line class="cls-1" x1="415.32" y1="277.36" x2="518.27" y2="277.36"/><path class="cls-1" d="M297.64,244.26A154.42,154.42,0,0,0,143.22,398.68" transform="translate(-36.73 -121.32)"/><path class="cls-1" d="M452.06,398.68A154.42,154.42,0,0,1,297.64,553.1" transform="translate(-36.73 -121.32)"/><polyline class="cls-1" points="260.9 534.72 518.27 534.72 518.27 20 3.54 20 3.54 534.72 106.49 534.72"/><polyline class="cls-1" points="106.49 277.36 106.49 534.72 3.54 534.72"/><path class="cls-1" d="M297.64,244.26A154.42,154.42,0,0,1,452.06,398.68" transform="translate(-36.73 -121.32)"/><line class="cls-2" x1="964.05" y1="431.78" x2="964.05" y2="534.72"/><line class="cls-2" x1="809.64" y1="534.72" x2="964.05" y2="534.72"/><line class="cls-2" x1="964.05" y1="122.94" x2="964.05" y2="20"/><line class="cls-2" x1="809.64" y1="432.09" x2="706.69" y2="432.09"/><line class="cls-2" x1="964.05" y1="431.78" x2="809.64" y2="431.78"/><line class="cls-2" x1="1118.47" y1="277.36" x2="1221.42" y2="277.36"/><path class="cls-2" d="M1000.79,244.26A154.42,154.42,0,0,0,846.37,398.68" transform="translate(-36.73 -121.32)"/><path class="cls-2" d="M1155.2,398.68A154.42,154.42,0,0,1,1000.79,553.1" transform="translate(-36.73 -121.32)"/><polyline class="cls-2" points="964.05 534.72 1221.42 534.72 1221.42 20 706.69 20 706.69 534.72 809.64 534.72"/><polyline class="cls-2" points="809.64 277.36 809.64 534.72 706.69 534.72"/><path class="cls-2" d="M1000.79,244.26A154.42,154.42,0,0,1,1155.2,398.68" transform="translate(-36.73 -121.32)"/><line class="cls-2" x1="2100.73" y1="431.78" x2="2100.73" y2="534.72"/><line class="cls-2" x1="1946.32" y1="534.72" x2="2100.73" y2="534.72"/><line class="cls-2" x1="2100.73" y1="122.94" x2="2100.73" y2="20"/><line class="cls-2" x1="1946.32" y1="432.09" x2="1843.37" y2="432.09"/><line class="cls-2" x1="2100.73" y1="431.78" x2="1946.32" y2="431.78"/><line class="cls-2" x1="2255.15" y1="277.36" x2="2358.1" y2="277.36"/><path class="cls-3" d="M2137.47,244.26a154.42,154.42,0,0,0-154.42,154.42" transform="translate(-36.73 -121.32)"/><path class="cls-3" d="M2291.89,398.68A154.42,154.42,0,0,1,2137.47,553.1" transform="translate(-36.73 -121.32)"/><polyline class="cls-2" points="2098.86 20 1843.37 20 1843.37 534.72 1946.32 534.72"/><polyline class="cls-3" points="2358.1 277.89 2358.1 20 2098.86 20"/><polyline class="cls-2" points="2100.74 534.72 2358.1 534.72 2358.1 277.89"/><polyline class="cls-2" points="1946.32 431.08 1946.32 534.72 1843.37 534.72"/><line class="cls-3" x1="1946.32" y1="277.36" x2="1946.32" y2="431.09"/><path class="cls-2" d="M2137.47,244.26a154.42,154.42,0,0,1,154.42,154.42" transform="translate(-36.73 -121.32)"/><line class="cls-4" x1="1919.46" y1="907.38" x2="1919.46" y2="999.5"/><line class="cls-4" x1="1753.64" y1="1460.11" x2="1919.46" y2="1460.11"/><line class="cls-4" x1="1919.46" y1="1091.62" x2="1919.46" y2="1183.74"/><line class="cls-4" x1="1919.46" y1="1460.11" x2="1919.46" y2="1367.99"/><line class="cls-4" x1="1919.46" y1="1367.99" x2="1873.4" y2="1288.21"/><line class="cls-4" x1="1919.46" y1="999.5" x2="1965.52" y2="1079.28"/><line class="cls-4" x1="1827.34" y1="1183.74" x2="1919.46" y2="1183.74"/><line class="cls-4" x1="1735.22" y1="1183.74" x2="1815" y2="1137.68"/><line class="cls-4" x1="1643.09" y1="1183.74" x2="1735.22" y2="1183.74"/><line class="cls-4" x1="2011.58" y1="1183.74" x2="1919.46" y2="1183.74"/><line class="cls-4" x1="2103.7" y1="1183.74" x2="2023.92" y2="1229.81"/><line class="cls-4" x1="2195.82" y1="1183.74" x2="2103.7" y2="1183.74"/><line class="cls-4" x1="1919.46" y1="1275.87" x2="1919.46" y2="1183.74"/><polyline class="cls-4" points="1919.46 1460.11 2195.82 1460.11 2195.82 907.38 1643.1 907.38 1643.1 1460.11 1753.64 1460.11"/><line class="cls-5" x1="2899.15" y1="907.38" x2="2899.15" y2="999.5"/><line class="cls-5" x1="2899.15" y1="1091.62" x2="2899.15" y2="1183.74"/><line class="cls-5" x1="2899.15" y1="1460.11" x2="2899.15" y2="1367.99"/><line class="cls-6" x1="2899.15" y1="1367.99" x2="2853.09" y2="1288.21"/><line class="cls-6" x1="2899.15" y1="999.5" x2="2945.21" y2="1079.28"/><line class="cls-5" x1="2807.03" y1="1183.74" x2="2899.15" y2="1183.74"/><line class="cls-6" x1="2714.9" y1="1183.74" x2="2794.68" y2="1137.68"/><line class="cls-5" x1="2622.78" y1="1183.74" x2="2714.9" y2="1183.74"/><line class="cls-5" x1="2991.27" y1="1183.74" x2="2899.15" y2="1183.74"/><line class="cls-6" x1="3083.39" y1="1183.74" x2="3003.61" y2="1229.81"/><line class="cls-5" x1="3175.51" y1="1183.74" x2="3083.39" y2="1183.74"/><line class="cls-5" x1="2899.15" y1="1275.87" x2="2899.15" y2="1183.74"/><polyline class="cls-7" points="2899.15 1460.11 3175.51 1460.11 3175.51 907.38 2622.78 907.38 2622.78 1460.11 2900.15 1460.11"/><line class="cls-8" x1="3900" y1="1091.62" x2="3900" y2="1183.74"/><polyline class="cls-8" points="3853.94 1288.21 3900 1367.99 3900 1460.11"/><polyline class="cls-8" points="3946.06 1079.28 3900 999.5 3900 907.38"/><line class="cls-8" x1="3807.88" y1="1183.74" x2="3900" y2="1183.74"/><polyline class="cls-8" points="3623.64 1183.74 3715.76 1183.74 3795.53 1137.68"/><line class="cls-8" x1="3992.12" y1="1183.74" x2="3900" y2="1183.74"/><polyline class="cls-8" points="4176.36 1183.74 4084.24 1183.74 4004.46 1229.81"/><line class="cls-8" x1="3900" y1="1275.87" x2="3900" y2="1183.74"/><polyline class="cls-9" points="3900 1460.11 4176.36 1460.11 4176.36 907.38 3623.64 907.38 3623.64 1460.11 3901 1460.11"/><line class="cls-8" x1="4856.93" y1="1114.98" x2="4856.93" y2="1183.74"/><polyline class="cls-8" points="4822.55 1261.72 4856.93 1321.28 4856.93 1390.04"/><polyline class="cls-8" points="4891.32 1105.77 4856.93 1046.21 4856.93 977.45"/><line class="cls-8" x1="4788.17" y1="1183.74" x2="4856.93" y2="1183.74"/><polyline class="cls-8" points="4650.64 1183.74 4719.4 1183.74 4778.96 1149.36"/><line class="cls-8" x1="4925.7" y1="1183.74" x2="4856.93" y2="1183.74"/><polyline class="cls-8" points="5063.23 1183.74 4994.47 1183.74 4934.91 1218.13"/><line class="cls-8" x1="4856.93" y1="1252.51" x2="4856.93" y2="1183.74"/><polyline class="cls-10" points="4856.93 1390.04 5063.23 1390.04 5063.23 977.45 4650.64 977.45 4650.64 1390.04 4857.68 1390.04"/><line class="cls-11" x1="5620.56" y1="1303.23" x2="5620.56" y2="1321.62"/><polyline class="cls-11" points="5611.37 1342.46 5620.56 1358.38 5620.56 1376.77"/><polyline class="cls-11" points="5629.76 1300.77 5620.56 1284.85 5620.56 1266.47"/><line class="cls-11" x1="5602.18" y1="1321.62" x2="5620.56" y2="1321.62"/><polyline class="cls-11" points="5565.42 1321.62 5583.8 1321.62 5599.72 1312.43"/><line class="cls-11" x1="5638.95" y1="1321.62" x2="5620.56" y2="1321.62"/><polyline class="cls-11" points="5675.71 1321.62 5657.33 1321.62 5641.41 1330.81"/><line class="cls-11" x1="5620.56" y1="1340" x2="5620.56" y2="1321.62"/><polyline class="cls-12" points="5620.56 1376.77 5675.71 1376.77 5675.71 1266.47 5565.42 1266.47 5565.42 1376.77 5620.76 1376.77"/></svg>